<svg xmlns="http://www.w3.org/2000/svg" viewBox="0 0 320 320" role="img" aria-labelledby="title">
  <title id="title">Centerline Roofing &amp; Exteriors shield icon</title>
  <defs>
    <linearGradient id="shieldBlue" x1="54" x2="266" y1="52" y2="270" gradientUnits="userSpaceOnUse">
      <stop stop-color="#2f86ff"/>
      <stop offset=".42" stop-color="#064caa"/>
      <stop offset="1" stop-color="#061a33"/>
    </linearGradient>
    <linearGradient id="silver" x1="70" x2="250" y1="48" y2="260" gradientUnits="userSpaceOnUse">
      <stop stop-color="#ffffff"/>
      <stop offset=".45" stop-color="#d9dfe7"/>
      <stop offset="1" stop-color="#8f9aa8"/>
    </linearGradient>
    <filter id="shadow" width="140%" height="140%" x="-20%" y="-20%">
      <feDropShadow dx="0" dy="8" flood-color="#061a33" flood-opacity=".24" stdDeviation="8"/>
    </filter>
  </defs>
  <path d="M34 56 160 20l126 36v108c0 69-50 111-126 139C84 275 34 233 34 164Z" fill="url(#silver)" filter="url(#shadow)"/>
  <path d="M50 68 160 37l110 31v94c0 58-40 94-110 121C90 256 50 220 50 162Z" fill="#061a33"/>
  <path d="M63 79 160 52l97 27v81c0 50-33 81-97 106-64-25-97-56-97-106Z" fill="url(#shieldBlue)"/>
  <path d="M83 125 160 78l77 47" fill="none" stroke="url(#silver)" stroke-linecap="round" stroke-linejoin="round" stroke-width="18"/>
  <path d="M90 103c-15 13-25 36-25 63 0 55 42 100 95 100s95-45 95-100c0-27-10-50-25-63" fill="none" stroke="url(#silver)" stroke-linecap="round" stroke-width="21"/>
  <g fill="#061a33">
    <circle cx="80" cy="147" r="5"/>
    <circle cx="95" cy="205" r="5"/>
    <circle cx="132" cy="236" r="5"/>
    <circle cx="188" cy="236" r="5"/>
    <circle cx="225" cy="205" r="5"/>
    <circle cx="240" cy="147" r="5"/>
  </g>
  <text x="160" y="188" fill="#f8fafc" font-family="Arial Black, Arial, sans-serif" font-size="88" font-weight="900" letter-spacing="-8" text-anchor="middle">CL</text>
  <text x="164" y="184" fill="#9aa6b5" font-family="Arial Black, Arial, sans-serif" font-size="88" font-weight="900" letter-spacing="-8" opacity=".55" text-anchor="middle">CL</text>
  <text x="160" y="184" fill="#f8fafc" font-family="Arial Black, Arial, sans-serif" font-size="88" font-weight="900" letter-spacing="-8" text-anchor="middle">CL</text>
</svg>
